<?xml version="1.0" encoding="UTF-8" standalone="no"?>
<svg width="192px" height="192px" viewBox="0 0 192 192" version="1.1" xmlns="http://www.w3.org/2000/svg" xmlns:xlink="http://www.w3.org/1999/xlink">
    <!-- Generator: Sketch 39.1 (31720) - http://www.bohemiancoding.com/sketch -->
    <title>10,000hrs</title>
    <desc>Created with Sketch.</desc>
    <defs></defs>
    <g id="Page-1" stroke="none" stroke-width="1" fill="none" fill-rule="evenodd">
        <g id="10,000hrs" fill="#000000">
            <g id="clock" transform="translate(41.000000, 41.000000)">
                <g id="Group">
                    <path d="M55,0 C24.6724211,0 0,24.673 0,55 C0,85.327 24.6724211,110 55,110 C85.3272895,110 110,85.3275789 110,55 C110,24.6727105 85.3272895,0 55,0 L55,0 Z M78.1289474,91.7321842 L75.7587368,87.6552368 C75.4851842,87.1848421 74.9762895,86.8924737 74.4309211,86.8924737 C74.1593947,86.8924737 73.9017632,86.9625263 73.6643947,87.1006053 C73.3100789,87.3064211 73.0576579,87.6372895 72.9528684,88.0332895 C72.8492368,88.429 72.9039474,88.8417895 73.1097632,89.1961053 L75.4831579,93.2782632 C70.1808684,96.1275526 64.2208947,97.9046316 57.8947368,98.3237895 L57.8947368,92.565 C57.8947368,90.9668158 56.5981842,89.6702632 55,89.6702632 C53.4015263,89.6702632 52.1052632,90.9668158 52.1052632,92.565 L52.1052632,98.3229211 C45.8726053,97.9107105 39.9954211,96.1776316 34.7516053,93.4012895 L37.0995263,89.3055263 C37.3030263,88.9506316 37.3562895,88.5381316 37.2491842,88.1424211 C37.1420789,87.7475789 36.8876316,87.4181579 36.5327368,87.2146579 C36.2971053,87.0794737 36.0415,87.0108684 35.7731579,87.0108684 C35.2243158,87.0108684 34.7136842,87.3064211 34.4407105,87.7817368 L32.0953947,91.8728684 C26.8648947,88.6116579 22.374,84.2712895 18.9396842,79.1626579 L23.9151579,76.2902105 C25.2994211,75.4909737 25.7738684,73.7205526 24.9743421,72.336 C24.1751053,70.9520263 22.4046842,70.4772895 21.0204211,71.2771053 L16.038,74.1536053 C13.4165263,68.8420526 11.8504737,62.9220263 11.6136842,56.6665 L16.3407895,56.6520263 C16.7501053,56.6508684 17.1342368,56.4902105 17.4225526,56.2001579 C17.7108684,55.9098158 17.8692105,55.5245263 17.8677632,55.1152105 C17.8651579,54.2728421 17.1776579,53.5876579 16.3355789,53.5876579 L11.6032632,53.6021316 C11.8056053,47.2484737 13.3794737,41.2358158 16.0377105,35.8495789 L21.0201316,38.7260789 C21.4757632,38.9892105 21.9733684,39.1142632 22.4643158,39.1142632 C23.4647368,39.1142632 24.4379474,38.5952368 24.9740526,37.6666053 C25.7735789,36.2820526 25.2991316,34.5116316 23.9148684,33.7123947 L18.9393947,30.8399474 C22.3242105,25.8039737 26.7357895,21.5145526 31.8704737,18.2698421 L34.2406842,22.3467895 C34.3778947,22.5824211 34.5660526,22.7702895 34.8008158,22.9051842 C35.2691842,23.1732368 35.8628947,23.1761316 36.3347368,22.9014211 C36.6890526,22.6956053 36.9417632,22.3641579 37.0462632,21.9684474 C37.1510526,21.5730263 37.0951842,21.1605263 36.8896579,20.8067895 L34.5165526,16.7246316 C39.8194211,13.8753421 45.7791053,12.0976842 52.1049737,11.6791053 L52.1049737,17.4364474 C52.1049737,19.0349211 53.4012368,20.3311842 54.9997105,20.3311842 C56.5978947,20.3311842 57.8944474,19.0349211 57.8944474,17.4364474 L57.8944474,11.6791053 C64.1268158,12.0913158 70.0037105,13.8241053 75.2475263,16.6004474 L72.8996053,20.6962105 C72.4795789,21.4291579 72.7340263,22.3673421 73.4666842,22.7873684 C73.7020263,22.9222632 73.9576316,22.9908684 74.2262632,22.9908684 C74.7753947,22.9908684 75.2857368,22.6956053 75.5578421,22.2205789 L77.9037368,18.1288684 C83.1348158,21.3897895 87.6257105,25.7307368 91.0600263,30.8393684 L86.0845526,33.7118158 C84.7,34.5110526 84.2258421,36.2814737 85.0253684,37.6660263 C85.5620526,38.5946579 86.5346842,39.1136842 87.5351053,39.1136842 C88.0260526,39.1136842 88.5239474,38.9886316 88.9792895,38.7255 L93.9617105,35.8487105 C96.5837632,41.1599737 98.1492368,47.0802895 98.3860263,53.3358158 L93.6589211,53.3502895 C93.2496053,53.3514474 92.8654737,53.5121053 92.5777368,53.8021579 C92.2894211,54.0925 92.1310789,54.4775 92.1325263,54.8868158 C92.1342632,55.4330526 92.4295263,55.9410789 92.9048421,56.2134737 C93.1346842,56.3451842 93.3966579,56.4140789 93.6641316,56.4140789 L93.6690526,56.4140789 L98.3970263,56.3996053 C98.1946842,62.7532632 96.6208158,68.7662105 93.9625789,74.1521579 L88.9801579,71.2753684 C87.5953158,70.4758421 85.8260526,70.9505789 85.0262368,72.3348421 C84.2267105,73.7191053 84.7008684,75.4895263 86.0854211,76.2887632 L91.0608947,79.1612105 C87.6749211,84.1971842 83.2639211,88.4868947 78.1289474,91.7321842 L78.1289474,91.7321842 Z" id="Shape"></path>
                    <path d="M76.3938421,39.3032895 L57.8264211,49.6050789 C56.9811579,49.1613158 56.0209737,48.9068684 54.9991316,48.9068684 C53.9778684,48.9068684 53.0173947,49.1610263 52.1721316,49.6050789 L33.605,39.3032895 C31.8496316,38.3289211 29.6360263,38.9628684 28.6613684,40.7185263 C27.6875789,42.4741842 28.3209474,44.6875 30.0771842,45.6618684 L49.0212105,56.1729474 C49.5686053,58.9767895 52.0352105,61.0931316 54.9988421,61.0931316 C57.9624737,61.0931316 60.4293684,58.9765 60.9764737,56.1729474 L79.9199211,45.6618684 C81.6758684,44.6877895 82.3092368,42.4744737 81.3357368,40.7185263 C80.3631053,38.9625789 78.1500789,38.3289211 76.3938421,39.3032895 L76.3938421,39.3032895 Z" id="Shape"></path>
                </g>
            </g>
        </g>
    </g>
</svg>