<?xml version="1.0" encoding="UTF-8"?>
<svg width="150px" height="200px" viewBox="0 0 150 200" version="1.1" xmlns="http://www.w3.org/2000/svg" xmlns:xlink="http://www.w3.org/1999/xlink">
    <!-- Generator: Sketch 39.1 (31720) - http://www.bohemiancoding.com/sketch -->
    <title>8th-Light-Logo-Color-Text-f2698495</title>
    <desc>Created with Sketch.</desc>
    <defs></defs>
    <g id="Page-1" stroke="none" stroke-width="1" fill="none" fill-rule="evenodd">
        <g id="8th-Light-Logo-Color-Text-f2698495">
            <path d="M80.4189017,79.3977011 L149.936143,2.57369093 L147.373946,0.00510855683 L70.7346105,69.4998723 C74.6646232,72.0181354 77.9831418,75.4086845 80.4189017,79.3977011" id="Fill-1" fill="#339ECD"></path>
            <path d="M54.4326948,109.23576 C46.9200511,109.23576 40.8301405,103.134866 40.8301405,95.6079183 C40.8301405,88.0942529 46.9200511,81.9933589 54.4326948,81.9933589 C61.9463602,81.9933589 68.0321839,88.0942529 68.0321839,95.6079183 C68.0321839,103.134866 61.9463602,109.23576 54.4326948,109.23576 L54.4326948,109.23576 Z M61.4850575,73.0888889 L56.091954,0.156832695 L52.4625798,0.156832695 L47.0572158,73.1969349 C45.8707535,73.5877395 44.7226054,74.0730524 43.6270754,74.6355045 L5.70114943,44.2630907 L3.13461047,46.833461 L33.4766284,84.7969349 C32.8799489,85.9604087 32.3675607,87.1721584 31.9662835,88.4383142 L0,93.7724138 L0,97.405364 L31.9499361,102.733333 C32.3650064,104.051852 32.8962963,105.315198 33.5254151,106.521839 L14.9215837,132.595913 L17.4853129,135.163729 L43.5307791,116.540996 C44.6842912,117.145594 45.8968072,117.657982 47.1573436,118.067433 L52.4625798,149.941252 L56.091954,149.941252 L61.3752235,118.175734 C62.7203065,117.761175 64.0066411,117.224521 65.2390805,116.592337 L103.165262,146.966794 L105.727458,144.398978 L75.3897829,106.432184 C75.9823755,105.26871 76.491954,104.05696 76.8932312,102.799234 L149.624521,97.405364 L149.624521,93.7724138 L76.8743295,88.3790549 C74.5394636,81.106258 68.7780332,75.3762452 61.4850575,73.0888889 L61.4850575,73.0888889 Z" id="Fill-2" fill="#222321"></path>
            <path d="M13.9167305,178.727714 C13.9167305,179.350192 14.0853129,179.858238 14.4224777,180.251852 C14.7598978,180.645466 15.2137931,180.967305 15.7844189,181.218135 L17.4446999,181.97037 L17.9637292,181.425543 C18.3440613,181.010473 18.6293742,180.582375 18.8196679,180.141507 C19.0097063,179.700383 19.1049808,179.194636 19.1049808,178.623755 C19.1049808,178.260792 19.0380587,177.947382 18.9039591,177.683525 C18.7698595,177.419923 18.5818646,177.203576 18.339719,177.034994 C18.0975734,176.866411 17.8122605,176.74304 17.4837803,176.66539 C17.1550447,176.587484 16.7961686,176.548404 16.407152,176.548404 C16.0439336,176.548404 15.7108557,176.59387 15.4084291,176.684802 C15.1054917,176.775479 14.844189,176.911622 14.6237548,177.093231 C14.4030651,177.27484 14.2298851,177.501916 14.1047254,177.774202 C13.9793103,178.046743 13.9167305,178.364496 13.9167305,178.727714 L13.9167305,178.727714 Z M15.1619413,184.538697 L14.746871,184.953768 C14.3318008,185.368838 13.985696,185.822733 13.7090677,186.315709 C13.4321839,186.808429 13.2939974,187.392337 13.2939974,188.066667 C13.2939974,188.455939 13.3632184,188.799489 13.5016603,189.097829 C13.6398467,189.396169 13.8324393,189.644955 14.0789272,189.843678 C14.3254151,190.042912 14.6191571,190.19387 14.9609195,190.297829 C15.3024266,190.401533 15.6807152,190.453384 16.0957854,190.453384 C16.5108557,190.453384 16.8911877,190.405875 17.2372925,190.3106 C17.5828863,190.215581 17.8794381,190.070754 18.1256705,189.876117 C18.3721584,189.681481 18.5621967,189.435249 18.6965517,189.136909 C18.8303959,188.83857 18.8975734,188.481737 18.8975734,188.066667 C18.8975734,187.392337 18.7307791,186.836782 18.398212,186.4 C18.0651341,185.963474 17.6176245,185.619668 17.0556833,185.368838 L15.1619413,184.538697 L15.1619413,184.538697 Z M16.0957854,193.566284 C15.1877395,193.566284 14.336143,193.460281 13.5404853,193.248531 C12.7448276,193.036782 12.053129,192.714687 11.4651341,192.282248 C10.8771392,191.850064 10.4122605,191.300894 10.0707535,190.634994 C9.72899106,189.969093 9.55836526,189.18212 9.55836526,188.27433 C9.55836526,187.7553 9.63627075,187.268966 9.79182631,186.81507 C9.94763729,186.36092 10.1507024,185.941762 10.4015326,185.556833 C10.6523627,185.172158 10.9399745,184.82401 11.2641124,184.512644 C11.5885057,184.201277 11.9192848,183.933589 12.2564496,183.708557 L12.7494253,183.39719 C12.3862069,183.172414 12.0378033,182.912899 11.7052363,182.618902 C11.3721584,182.32516 11.0761175,181.987739 10.8166028,181.607152 C10.5573436,181.22682 10.3517241,180.796424 10.2005109,180.316475 C10.0490421,179.836782 9.9734355,179.307024 9.9734355,178.727714 C9.9734355,177.897573 10.1530013,177.154023 10.5118774,176.496552 C10.8704981,175.839591 11.3484036,175.28378 11.945083,174.829885 C12.5417625,174.37599 13.2270754,174.03014 14.0010217,173.792082 C14.7747126,173.554534 15.5770115,173.435504 16.407152,173.435504 C17.2891443,173.435504 18.1213282,173.535121 18.9039591,173.733844 C19.68659,173.932822 20.3698595,174.235504 20.9535121,174.64189 C21.5371648,175.048276 21.9977011,175.562708 22.3348659,176.185441 C22.6720307,176.807918 22.840613,177.54304 22.840613,178.390294 C22.840613,178.891954 22.7800766,179.348148 22.6590038,179.758876 C22.537931,180.169604 22.3693487,180.548148 22.1532567,180.893742 C21.9369093,181.239847 21.6840358,181.557599 21.3943806,181.847254 C21.10447,182.136909 20.7913155,182.411494 20.4541507,182.670754 L19.8832695,183.111877 C20.3157088,183.345338 20.71341,183.613538 21.0766284,183.915964 C21.4398467,184.218902 21.7512133,184.569093 22.0104725,184.966794 C22.2699872,185.364496 22.4730524,185.818391 22.6201788,186.328736 C22.7670498,186.83908 22.840613,187.418135 22.840613,188.066667 C22.840613,188.966284 22.6590038,189.759387 22.2960409,190.446999 C21.9328225,191.134355 21.444189,191.709579 20.8301405,192.171903 C20.216092,192.634738 19.5006386,192.982631 18.6835249,193.216092 C17.8664112,193.449553 17.0038314,193.566284 16.0957854,193.566284 L16.0957854,193.566284 Z" id="Fill-3" fill="#339ECD"></path>
            <path d="M24.1067688,180.284036 L26.1821201,180.284036 L26.1821201,177.378544 L28.7765006,176.756066 L30.1254151,176.756066 L30.1254151,180.284036 L33.9650064,180.284036 L33.9650064,183.39719 L30.1254151,183.39719 L30.1254151,188.6894 C30.1254151,189.260026 30.2592593,189.696807 30.5277139,189.999489 C30.7954023,190.302171 31.2234994,190.453384 31.8117497,190.453384 C32.1749681,190.453384 32.5272031,190.403831 32.8689655,190.304215 C33.2102171,190.204853 33.5065134,190.081737 33.7573436,189.93461 L33.9650064,189.93461 L33.9650064,192.943806 C33.7573436,193.04751 33.5065134,193.138442 33.212516,193.216092 C32.9182631,193.293997 32.6094508,193.358876 32.2850575,193.410728 C31.9609195,193.46258 31.6365262,193.50166 31.3123883,193.527458 C30.9879949,193.553512 30.6962963,193.566284 30.4367816,193.566284 C29.7882503,193.566284 29.2020434,193.488633 28.6791826,193.332822 C28.155811,193.177267 27.7083014,192.939464 27.3366539,192.619413 C26.964751,192.299617 26.6794381,191.899617 26.4804598,191.419668 C26.2814815,190.939719 26.1821201,190.375479 26.1821201,189.726948 L26.1821201,183.39719 L24.1067688,183.39719 L24.1067688,180.284036" id="Fill-4" fill="#339ECD"></path>
            <path d="M45.2273308,186.717752 C45.2273308,186.302682 45.2056194,185.915709 45.1627075,185.556833 C45.1192848,185.198212 45.037037,184.893231 44.9162197,184.642401 C44.7430396,184.262069 44.4858238,183.976756 44.1443167,183.786207 C43.8025543,183.596169 43.3335888,183.500894 42.7369093,183.500894 C42.2699872,183.500894 41.8332056,183.591826 41.4270754,183.773436 C41.0204342,183.955045 40.6615581,184.175479 40.350447,184.434738 L40.350447,193.358876 L36.407152,193.358876 L36.407152,173.020434 L39.0012771,172.397701 L40.350447,172.397701 L40.350447,181.321839 L40.5578544,181.321839 C41.1287356,180.906769 41.6947637,180.595402 42.2572158,180.387995 C42.8191571,180.180332 43.4633461,180.076628 44.1897829,180.076628 C45.0457216,180.076628 45.8413793,180.241124 46.5765006,180.569604 C47.3113665,180.89834 47.8993614,181.425543 48.3404853,182.15198 C48.6,182.584419 48.8028097,183.079438 48.9501916,183.637037 C49.0970626,184.194891 49.1706258,184.841379 49.1706258,185.576245 L49.1706258,193.358876 L45.2273308,193.358876 L45.2273308,186.717752" id="Fill-5" fill="#339ECD"></path>
            <polyline id="Fill-6" fill="#222321" points="60.2280971 193.358876 60.2280971 174.265645 64.4825032 174.265645 64.4825032 190.038314 71.8500639 190.038314 71.8500639 193.358876 60.2280971 193.358876"></polyline>
            <path d="M73.4043423,180.491699 L75.9984674,179.868966 L77.3473819,179.868966 L77.3473819,193.358876 L73.4043423,193.358876 L73.4043423,180.491699 L73.4043423,180.491699 Z M75.4796935,176.963474 C74.8051086,176.963474 74.2906769,176.794891 73.936143,176.457727 C73.5813538,176.120562 73.4043423,175.657982 73.4043423,175.069732 C73.4043423,174.507791 73.5813538,174.060281 73.936143,173.727458 C74.2906769,173.394636 74.8051086,173.227842 75.4796935,173.227842 C76.1542784,173.227842 76.6684547,173.394636 77.0232439,173.727458 C77.3777778,174.060281 77.5550447,174.507791 77.5550447,175.069732 C77.5550447,175.657982 77.3777778,176.120562 77.0232439,176.457727 C76.6684547,176.794891 76.1542784,176.963474 75.4796935,176.963474 L75.4796935,176.963474 Z" id="Fill-7" fill="#222321"></path>
            <path d="M85.4324393,186.92516 C86.1673052,186.92516 86.7315453,186.745849 87.1251596,186.386973 C87.5185185,186.028352 87.715198,185.481226 87.715198,184.746105 C87.715198,184.011239 87.5185185,183.464368 87.1251596,183.105236 C86.7315453,182.746616 86.1673052,182.56705 85.4324393,182.56705 C84.697318,182.56705 84.1330779,182.746616 83.739719,183.105236 C83.3461047,183.464368 83.1494253,184.011239 83.1494253,184.746105 C83.1494253,185.481226 83.3461047,186.028352 83.739719,186.386973 C84.1330779,186.745849 84.697318,186.92516 85.4324393,186.92516 L85.4324393,186.92516 Z M84.2002554,193.851852 C84.1394636,193.851852 84.0745849,193.842912 84.0056194,193.825798 L83.4607918,194.189017 C83.1494253,194.396424 82.8985951,194.651596 82.7085568,194.954278 C82.5182631,195.25696 82.4232439,195.589783 82.4232439,195.953001 C82.4232439,196.290421 82.4945083,196.58212 82.637037,196.828608 C82.7798212,197.075096 82.9721584,197.28046 83.214304,197.4447 C83.4561941,197.60894 83.7330779,197.730013 84.0444444,197.807918 C84.355811,197.885824 84.6799489,197.924649 85.0173691,197.924649 C85.5621967,197.924649 86.0569604,197.864112 86.5024266,197.74304 C86.9476373,197.621711 87.3302682,197.457727 87.6503193,197.250064 C87.9701149,197.042656 88.2166028,196.800511 88.3897829,196.523883 C88.5627075,196.246999 88.6492976,195.953001 88.6492976,195.641635 C88.6492976,195.416858 88.6275862,195.222222 88.5844189,195.057982 C88.5409962,194.893742 88.4610473,194.753257 88.3443167,194.636526 C88.2275862,194.519796 88.067433,194.42682 87.8643678,194.357599 C87.6610473,194.288378 87.4040868,194.232184 87.0927203,194.189017 L84.394636,193.87765 C84.3254151,193.860281 84.2605364,193.851852 84.2002554,193.851852 L84.2002554,193.851852 Z M84.8097063,200 C83.9795658,200 83.1948914,199.932822 82.4554278,199.798978 C81.7162197,199.664623 81.0676884,199.455172 80.509834,199.16986 C79.952235,198.884547 79.5088123,198.519029 79.1803321,198.073819 C78.8515964,197.628352 78.6876117,197.094508 78.6876117,196.471775 C78.6876117,196.022222 78.7846743,195.609451 78.9793103,195.233206 C79.1739464,194.85696 79.4332056,194.528225 79.757599,194.247254 C80.0819923,193.966284 80.4556833,193.732822 80.8796935,193.546871 C81.3031928,193.36092 81.748659,193.229119 82.2155811,193.151213 L82.2155811,193.099361 C81.9560664,192.891954 81.7530013,192.63908 81.6058748,192.340741 C81.4587484,192.042401 81.3854406,191.690166 81.3854406,191.283525 C81.3854406,191.02401 81.4372925,190.777778 81.5409962,190.544061 C81.6449553,190.3106 81.7787995,190.103193 81.943295,189.921584 C82.1072797,189.739974 82.2868455,189.586462 82.4814815,189.461047 C82.6761175,189.335888 82.8641124,189.251596 83.0457216,189.208174 L83.0457216,189.026564 C81.9126437,188.741252 81.0242656,188.233461 80.3800766,187.502427 C79.7358876,186.771903 79.4137931,185.853129 79.4137931,184.746105 C79.4137931,184.019668 79.5586207,183.36705 79.8482759,182.787484 C80.137931,182.208429 80.5466156,181.717497 81.0740741,181.315453 C81.6015326,180.913155 82.2349936,180.606386 82.9744572,180.394381 C83.7136654,180.182631 84.5328225,180.076628 85.4324393,180.076628 C86.1499361,180.076628 86.8158365,180.145849 87.4298851,180.284036 C88.0436782,180.422478 88.5971903,180.621456 89.090166,180.880715 L89.2717752,180.803065 L89.5831418,180.803065 L92.1772669,180.284036 L93.4224777,180.284036 L93.4224777,182.670754 L90.9581098,182.670754 C91.1136654,182.973691 91.2347382,183.297829 91.3210728,183.643678 C91.4074074,183.989527 91.4508301,184.357088 91.4508301,184.746105 C91.4508301,185.446488 91.3037037,186.077905 91.0099617,186.639847 C90.7157088,187.202043 90.3029374,187.681992 89.7711367,188.079693 C89.2393359,188.47765 88.6038314,188.782375 87.8643678,188.994125 C87.1251596,189.20613 86.3144317,189.311877 85.4324393,189.311877 L84.8357599,189.311877 C84.7662835,189.415581 84.7103448,189.536909 84.6671775,189.675096 C84.6237548,189.813538 84.6022989,189.969093 84.6022989,190.142018 C84.6022989,190.453384 84.7103448,190.673819 84.9264368,190.803576 C85.1425287,190.933333 85.4842912,191.02401 85.9512133,191.075862 L88.856705,191.387229 C89.4446999,191.44802 89.9698595,191.568838 90.4326948,191.750447 C90.8950192,191.932056 91.28659,192.171903 91.6066411,192.470243 C91.9264368,192.768582 92.1708812,193.131801 92.3394636,193.559898 C92.508046,193.987995 92.5923372,194.482759 92.5923372,195.045211 C92.5923372,195.762708 92.3867178,196.424266 91.9762452,197.02963 C91.5655172,197.634738 91.005364,198.15811 90.2965517,198.599234 C89.5872286,199.040102 88.7614304,199.383908 87.8191571,199.630396 C86.8763729,199.876884 85.8733078,200 84.8097063,200 L84.8097063,200 Z" id="Fill-8" fill="#222321"></path>
            <path d="M103.794636,186.717752 C103.794636,186.302682 103.772925,185.915709 103.730013,185.556833 C103.68659,185.198212 103.604342,184.893231 103.483525,184.642401 C103.310345,184.262069 103.053129,183.976756 102.711622,183.786207 C102.36986,183.596169 101.900894,183.500894 101.304215,183.500894 C100.837292,183.500894 100.400511,183.591826 99.9943806,183.773436 C99.5877395,183.955045 99.2288633,184.175479 98.9177522,184.434738 L98.9177522,193.358876 L94.9744572,193.358876 L94.9744572,173.020434 L97.5685824,172.397701 L98.9177522,172.397701 L98.9177522,181.321839 L99.1251596,181.321839 C99.6960409,180.906769 100.262069,180.595402 100.824521,180.387995 C101.386462,180.180332 102.030651,180.076628 102.757088,180.076628 C103.613282,180.076628 104.408685,180.241124 105.143806,180.569604 C105.878672,180.89834 106.466667,181.425543 106.907791,182.15198 C107.167305,182.584419 107.370115,183.079438 107.517497,183.637037 C107.664368,184.194891 107.737931,184.841379 107.737931,185.576245 L107.737931,193.358876 L103.794636,193.358876 L103.794636,186.717752" id="Fill-9" fill="#222321"></path>
            <path d="M109.372925,180.284036 L111.448276,180.284036 L111.448276,177.378544 L114.042656,176.756066 L115.391571,176.756066 L115.391571,180.284036 L119.230907,180.284036 L119.230907,183.39719 L115.391571,183.39719 L115.391571,188.6894 C115.391571,189.260026 115.525415,189.696807 115.793614,189.999489 C116.061558,190.302171 116.489655,190.453384 117.07765,190.453384 C117.440868,190.453384 117.793103,190.403831 118.134866,190.304215 C118.476373,190.204853 118.772414,190.081737 119.023499,189.93461 L119.230907,189.93461 L119.230907,192.943806 C119.023499,193.04751 118.772414,193.138442 118.478672,193.216092 C118.184419,193.293997 117.875351,193.358876 117.551213,193.410728 C117.22682,193.46258 116.902682,193.50166 116.578289,193.527458 C116.254151,193.553512 115.962197,193.566284 115.702937,193.566284 C115.054406,193.566284 114.468455,193.488633 113.945338,193.332822 C113.421967,193.177267 112.974457,192.939464 112.60281,192.619413 C112.230907,192.299617 111.945594,191.899617 111.746616,191.419668 C111.547637,190.939719 111.448276,190.375479 111.448276,189.726948 L111.448276,183.39719 L109.372925,183.39719 L109.372925,180.284036" id="Fill-10" fill="#222321"></path>
        </g>
    </g>
</svg>