<?xml version="1.0" encoding="UTF-8" standalone="no"?>
<svg width="200px" height="200px" viewBox="0 0 200 200" version="1.1" xmlns="http://www.w3.org/2000/svg" xmlns:xlink="http://www.w3.org/1999/xlink">
    <!-- Generator: Sketch 39.1 (31720) - http://www.bohemiancoding.com/sketch -->
    <title>airplane</title>
    <desc>Created with Sketch.</desc>
    <defs></defs>
    <g id="Page-1" stroke="none" stroke-width="1" fill="none" fill-rule="evenodd">
        <g id="airplane" fill="#E3AD00">
            <path d="M104.277624,-0.700751006 C102.895746,0.743176401 98.0860092,6.87441752 97.9048894,17.9361425 C97.7271236,28.9961904 97.4973698,59.4997857 97.4973698,59.4997857 C97.4973698,59.4997857 91.4633967,64.02275 82.7545523,70.5531255 C82.9893373,67.7893713 83.2291533,63.028268 83.2291533,61.8627285 C83.2291533,60.3919685 82.5214444,58.8675434 81.4330485,58.703194 C80.3429755,58.5405215 76.2593945,58.5405215 75.3873362,58.5405215 C74.5169548,58.5405215 73.1552022,58.7585361 72.9371876,60.3919685 C72.72085,62.0254009 72.5028354,65.3476079 72.72085,67.9604289 C72.9371876,70.574927 73.1552022,72.5907234 74.0272605,74.2224788 C74.4481964,75.0140394 74.6796273,75.8559112 74.8054049,76.513309 C52.2123851,93.4597509 20.7344323,117.089178 19.6862852,117.978007 C18.0478217,119.371624 18.0880705,120.927912 18.0880705,121.994507 C18.0880705,123.059424 18.2457118,125.26808 19.4162825,124.773354 C20.5885302,124.281983 34.7058135,118.055151 48.3283713,113.06094 C61.9526063,108.068406 73.6029706,103.444819 76.8715124,102.643196 C80.1383772,101.841573 97.5208483,101.903624 97.5208483,101.903624 C97.5208483,101.901947 97.2843863,127.701458 97.7791117,137.694911 C98.2738371,147.688365 101.406539,159.248169 101.406539,159.248169 C101.406539,159.248169 78.276868,179.225014 77.6697812,179.723093 C77.0610174,180.221173 76.6736223,180.994286 76.6736223,182.10113 C76.6736223,183.207973 76.8379717,186.417818 76.8379717,187.024905 C76.8379717,187.633669 77.6697812,187.580004 78.4428945,187.356958 C79.2176848,187.137267 104.395016,177.564749 104.395016,177.564749 C104.395016,177.564749 105.119495,180.477759 105.119495,183.447789 C105.119495,186.057256 105.288876,189.483439 106.41249,190.221335 C107.532749,189.483439 107.703807,186.057256 107.703807,183.447789 C107.703807,180.477759 108.429963,177.564749 108.429963,177.564749 C108.429963,177.564749 133.605617,187.137267 134.380407,187.356958 C135.153521,187.580004 135.983653,187.633669 135.983653,187.024905 C135.983653,186.417818 136.151357,183.207973 136.151357,182.10113 C136.151357,180.994286 135.763962,180.221173 135.153521,179.723093 C134.546434,179.225014 111.416763,159.248169 111.416763,159.248169 C111.416763,159.248169 114.549465,147.688365 115.04419,137.694911 C115.538916,127.701458 115.300777,101.903624 115.300777,101.903624 C115.300777,101.901947 132.684925,101.841573 135.95179,102.643196 C139.218654,103.444819 150.870696,108.068406 164.494931,113.06094 C178.117489,118.055151 192.234772,124.281983 193.407019,124.773354 C194.57759,125.26808 194.733554,123.059424 194.733554,121.994507 C194.733554,120.927912 194.77548,119.371624 193.13534,117.978007 C192.08887,117.089178 160.610917,93.4597509 138.019574,76.513309 C138.143675,75.8559112 138.373429,75.0140394 138.796041,74.2224788 C139.6681,72.5907234 139.886114,70.574927 140.104129,67.9604289 C140.320467,65.3476079 140.104129,62.0254009 139.886114,60.3919685 C139.6681,58.7585361 138.306347,58.5405215 137.435966,58.5405215 C136.563907,58.5405215 132.480326,58.5405215 131.391931,58.703194 C130.301858,58.8675434 129.594149,60.3919685 129.594149,61.8627285 C129.594149,63.028268 129.833965,67.7893713 130.06875,70.5531255 C121.359905,64.02275 115.325932,59.4997857 115.325932,59.4997857 C115.325932,59.4997857 115.097855,28.9961904 114.916736,17.9361425 C114.737293,6.87441752 109.927556,0.743176401 108.544001,-0.700751006 C107.168832,-2.13797027 105.65447,-2.13797027 104.277624,-0.700751006" id="Fill-7" transform="translate(106.410818, 94.221335) rotate(46.000000) translate(-106.410818, -94.221335) "></path>
        </g>
    </g>
</svg>