<?xml version="1.0" encoding="UTF-8" standalone="no"?>
<svg width="192px" height="192px" viewBox="0 0 192 192" version="1.1" xmlns="http://www.w3.org/2000/svg" xmlns:xlink="http://www.w3.org/1999/xlink">
    <!-- Generator: Sketch 39.1 (31720) - http://www.bohemiancoding.com/sketch -->
    <title>Answers</title>
    <desc>Created with Sketch.</desc>
    <defs></defs>
    <g id="Page-1" stroke="none" stroke-width="1" fill="none" fill-rule="evenodd">
        <g id="Answers" fill="#000000">
            <g id="graphic" transform="translate(41.000000, 41.000000)">
                <path d="M110,103.125 L110,110 L0,110 L0,0 L6.875,0 L6.875,103.125 L110,103.125 L110,103.125 Z M49.1790234,38.1818164 L77.2631836,45.1977539 L86.9848633,29.0039062 L95.793457,34.2944336 L96.25,6.875 L72.2747266,20.1819922 L81.0833203,25.4725195 L73.9868164,37.3024609 L47.0709766,30.5683984 L18.1946875,59.4446875 L23.0555273,64.3055273 L49.1790234,38.1818164 L49.1790234,38.1818164 Z M41.25,96.25 L55,96.25 L55,46.7218555 L51.2872852,45.7954492 L41.25,55.8325195 L41.25,96.25 L41.25,96.25 Z M20.625,71.5966797 L20.625,96.25 L34.375,96.25 L34.375,62.7075195 L23.0553125,74.027207 L20.625,71.5966797 L20.625,71.5966797 Z M82.5,49.84375 L82.5,96.25 L96.25,96.25 L96.25,42.5861133 L89.3414844,38.4437109 L82.5,49.84375 L82.5,49.84375 Z M75.625,96.25 L75.625,51.8781055 L61.875,48.4406055 L61.875,96.25 L75.625,96.25 L75.625,96.25 Z" id="Shape"></path>
            </g>
        </g>
    </g>
</svg>