<?xml version="1.0" encoding="UTF-8" standalone="no"?>
<svg width="192px" height="192px" viewBox="0 0 192 192" version="1.1" xmlns="http://www.w3.org/2000/svg" xmlns:xlink="http://www.w3.org/1999/xlink">
    <!-- Generator: Sketch 39.1 (31720) - http://www.bohemiancoding.com/sketch -->
    <title>Business View</title>
    <desc>Created with Sketch.</desc>
    <defs></defs>
    <g id="Page-1" stroke="none" stroke-width="1" fill="none" fill-rule="evenodd">
        <g id="Business-View" fill="#000000">
            <g id="fashion" transform="translate(28.000000, 48.000000)">
                <path d="M111.967817,0.0956273585 L24.7718833,0.0956273585 L0,33.1872689 L68.36985,96.6435708 L136.7397,33.1900142 L111.967817,0.0956273585 L111.967817,0.0956273585 Z M94.4140067,35.5871038 L68.38081,86.8781415 L42.5654433,35.5871038 L94.4140067,35.5871038 L94.4140067,35.5871038 Z M44.9739033,30.1267358 L68.36985,6.68567925 L91.7657967,30.1267358 L44.9739033,30.1267358 L44.9739033,30.1267358 Z M74.9476767,5.55553774 L106.60518,5.55553774 L97.67004,28.3221698 L74.9476767,5.55553774 L74.9476767,5.55553774 Z M39.4153567,27.9753491 L31.9575333,5.55553774 L61.7920233,5.55553774 L39.4153567,27.9753491 L39.4153567,27.9753491 Z M36.4643767,35.5871038 L59.1296567,80.6230142 L10.60517,35.5871038 L36.4643767,35.5871038 L36.4643767,35.5871038 Z M100.528773,35.5871038 L126.13453,35.5871038 L77.7219267,80.5196085 L100.528773,35.5871038 L100.528773,35.5871038 Z M102.817587,30.1267358 L111.354513,8.37585849 L127.635593,30.1267358 L102.817587,30.1267358 L102.817587,30.1267358 Z M26.60814,6.74333019 L34.3874567,30.1294811 L9.10091,30.1294811 L26.60814,6.74333019 L26.60814,6.74333019 Z" id="Shape"></path>
            </g>
        </g>
    </g>
</svg>