<?xml version="1.0" encoding="UTF-8" standalone="no"?>
<svg width="200px" height="200px" viewBox="0 0 200 200" version="1.1" xmlns="http://www.w3.org/2000/svg" xmlns:xlink="http://www.w3.org/1999/xlink">
    <!-- Generator: Sketch 39.1 (31720) - http://www.bohemiancoding.com/sketch -->
    <title>mesh</title>
    <desc>Created with Sketch.</desc>
    <defs>
        <rect id="path-1" x="0" y="27.4934726" width="158.626943" height="156.305483"></rect>
        <mask id="mask-2" maskContentUnits="userSpaceOnUse" maskUnits="objectBoundingBox" x="0" y="0" width="158.626943" height="156.305483" fill="white">
            <use xlink:href="#path-1"></use>
        </mask>
        <rect id="path-3" x="26.2694301" y="0" width="157.61658" height="156.305483"></rect>
        <mask id="mask-4" maskContentUnits="userSpaceOnUse" maskUnits="objectBoundingBox" x="0" y="0" width="157.61658" height="156.305483" fill="white">
            <use xlink:href="#path-3"></use>
        </mask>
    </defs>
    <g id="Case-Studies-2016" stroke="none" stroke-width="1" fill="none" fill-rule="evenodd">
        <g id="mesh">
            <g id="Icon-3DMesh" transform="translate(3.000000, 3.000000)">
                <g id="Outline-" transform="translate(8.588083, 11.201044)" stroke="#000000" stroke-linecap="square">
                    <path d="M128.568653,71.0248042 L128.568653,73.5704961" id="Line"></path>
                    <path d="M128.568653,65.424282 L128.568653,68.4791123" id="Line"></path>
                    <path d="M128.568653,53.2049608 L128.568653,56.7689295" id="Line"></path>
                    <path d="M128.568653,58.805483 L128.568653,62.8785901" id="Line"></path>
                    <path d="M137.156736,46.5861619 L140.693005,46.5861619" id="Line"></path>
                    <path d="M142.713731,46.5861619 L146.25,46.5861619" id="Line"></path>
                    <path d="M148.270725,46.5861619 L152.312176,46.5861619" id="Line"></path>
                    <path d="M157.36399,46.5861619 L155.343264,46.5861619" id="Line"></path>
                    <path d="M159.889896,46.5861619 L163.426166,46.5861619" id="Line"></path>
                    <path d="M165.952073,46.5861619 L169.488342,46.5861619" id="Line"></path>
                    <path d="M171.509067,46.5861619 L175.550518,46.5861619" id="Line"></path>
                    <path d="M105.330311,70.0065274 L108.361399,66.9516971" id="Line"></path>
                    <path d="M109.624352,65.6788512 L111.645078,63.6422977" id="Line"></path>
                    <path d="M113.665803,61.6057441 L115.686528,59.5691906" id="Line"></path>
                    <path d="M117.959845,57.2780679 L120.485751,54.732376" id="Line"></path>
                    <path d="M122.001295,53.2049608 L124.527202,50.6592689" id="Line"></path>
                    <path d="M81.0816062,46.0770235 L83.1023316,46.0770235" id="Line"></path>
                    <path d="M128.568653,24.6932115 L128.568653,27.7480418" id="Line"></path>
                    <path d="M128.568653,30.2937337 L128.568653,33.8577023" id="Line"></path>
                    <path d="M128.568653,35.8942559 L128.568653,38.9490862" id="Line"></path>
                    <path d="M85.123057,46.0770235 L88.6593264,46.0770235" id="Line"></path>
                    <path d="M90.6800518,46.0770235 L94.2163212,46.0770235" id="Line"></path>
                    <path d="M96.742228,46.0770235 L99.7733161,46.0770235" id="Line"></path>
                    <path d="M102.299223,46.0770235 L105.330311,46.0770235" id="Line"></path>
                    <path d="M107.856218,46.0770235 L111.897668,46.0770235" id="Line"></path>
                    <path d="M113.918394,46.0770235 L117.454663,46.0770235" id="Line"></path>
                    <path d="M119.98057,46.0770235 L122.506477,46.0770235" id="Line"></path>
                    <path d="M128.568653,0.254569191 L128.568653,4.83681462" id="Line"></path>
                    <path d="M128.568653,6.87336815 L128.568653,10.4373368" id="Line"></path>
                    <path d="M128.568653,12.9830287 L128.568653,16.5469974" id="Line"></path>
                    <path d="M128.568653,18.5835509 L128.568653,21.6383812" id="Line"></path>
                    <path d="M76.0297927,23.6749347 L76.0297927,27.7480418" id="Line"></path>
                    <path d="M76.0297927,29.7845953 L76.0297927,33.8577023" id="Line"></path>
                    <path d="M76.0297927,35.8942559 L76.0297927,38.9490862" id="Line"></path>
                    <path d="M76.0297927,0.254569191 L76.0297927,4.32767624" id="Line"></path>
                    <path d="M76.0297927,9.92819843 L76.0297927,6.36422977" id="Line"></path>
                    <path d="M76.0297927,16.037859 L76.0297927,12.4738903" id="Line"></path>
                    <path d="M76.0297927,21.6383812 L76.0297927,18.0744125" id="Line"></path>
                    <path d="M50.7707254,46.0770235 L53.8018135,46.0770235" id="Line"></path>
                    <path d="M56.3277202,46.0770235 L59.3588083,46.0770235" id="Line"></path>
                    <path d="M62.3898964,46.0770235 L65.4209845,46.0770235" id="Line"></path>
                    <path d="M67.9468912,46.0770235 L69.9676166,46.0770235" id="Line"></path>
                    <path d="M53.8018135,70.5156658 L56.3277202,67.9699739" id="Line"></path>
                    <path d="M58.3484456,65.9334204 L60.8743523,63.3877285" id="Line"></path>
                    <path d="M62.3898964,61.3511749 L64.4106218,59.3146214" id="Line"></path>
                    <path d="M66.4313472,57.2780679 L68.4520725,55.2415144" id="Line"></path>
                    <path d="M70.2202073,52.9503916 L72.2409326,50.9138381" id="Line"></path>
                    <path d="M76.0297927,56.2597911 L76.0297927,52.6958225" id="Line"></path>
                    <path d="M76.0297927,62.3694517 L76.0297927,58.805483" id="Line"></path>
                    <path d="M76.0297927,68.4791123 L76.0297927,64.4060052" id="Line"></path>
                    <path d="M76.0297927,72.5522193 L76.0297927,70.5156658" id="Line"></path>
                    <path d="M0.252590674,70.0065274 L3.28367876,66.9516971" id="Line"></path>
                    <path d="M4.29404145,65.9334204 L6.81994819,63.3877285" id="Line"></path>
                    <path d="M8.84067358,61.3511749 L10.861399,59.3146214" id="Line"></path>
                    <path d="M12.376943,57.2780679 L14.9028497,54.732376" id="Line"></path>
                    <path d="M16.4183938,53.2049608 L18.9443005,50.6592689" id="Line"></path>
                    <path d="M29.0479275,46.0770235 L31.0686528,46.0770235" id="Line"></path>
                    <path d="M128.568653,77.1344648 L128.568653,80.6984334" id="Line"></path>
                    <path d="M128.568653,82.7349869 L128.568653,86.2989556" id="Line"></path>
                    <path d="M128.568653,88.3355091 L128.568653,91.8994778" id="Line"></path>
                    <path d="M137.156736,98.0091384 L140.693005,98.0091384" id="Line"></path>
                    <path d="M142.713731,98.0091384 L146.25,98.0091384" id="Line"></path>
                    <path d="M148.270725,98.0091384 L151.806995,98.0091384" id="Line"></path>
                    <path d="M155.343264,98.0091384 L157.869171,98.0091384" id="Line"></path>
                    <path d="M160.395078,98.0091384 L163.426166,98.0091384" id="Line"></path>
                    <path d="M165.952073,98.0091384 L168.983161,98.0091384" id="Line"></path>
                    <path d="M171.509067,98.0091384 L175.045337,98.0091384" id="Line"></path>
                    <path d="M33.0893782,46.0770235 L36.1204663,46.0770235" id="Line"></path>
                    <path d="M39.1515544,46.0770235 L42.1826425,46.0770235" id="Line"></path>
                    <path d="M44.7085492,46.0770235 L47.7396373,46.0770235" id="Line"></path>
                    <path d="M76.0297927,128.557441 L76.0297927,132.12141" id="Line"></path>
                    <path d="M53.2966321,173.870757 L55.8225389,171.325065" id="Line"></path>
                    <path d="M57.8432642,169.288512 L59.8639896,167.251958" id="Line"></path>
                    <path d="M61.3795337,165.215405 L63.9054404,162.669713" id="Line"></path>
                    <path d="M65.4209845,161.142298 L67.9468912,158.596606" id="Line"></path>
                    <path d="M69.4624352,157.069191 L71.988342,154.523499" id="Line"></path>
                    <path d="M76.0297927,140.776762 L76.0297927,144.340731" id="Line"></path>
                    <path d="M76.0297927,134.157963 L76.0297927,137.721932" id="Line"></path>
                    <path d="M76.0297927,122.956919 L76.0297927,126.011749" id="Line"></path>
                    <path d="M76.0297927,116.847258 L76.0297927,120.411227" id="Line"></path>
                    <path d="M76.0297927,105.646214 L76.0297927,108.701044" id="Line"></path>
                    <path d="M69.9676166,103.609661 L71.4831606,102.082245" id="Line"></path>
                    <path d="M76.0297927,111.246736 L76.0297927,114.301567" id="Line"></path>
                    <path d="M102.804404,98.0091384 L105.330311,98.0091384" id="Line"></path>
                    <path d="M107.856218,98.0091384 L111.392487,98.0091384" id="Line"></path>
                    <path d="M113.918394,98.0091384 L116.949482,98.0091384" id="Line"></path>
                    <path d="M119.475389,98.0091384 L122.506477,98.0091384" id="Line"></path>
                    <path d="M134.125648,98.0091384 L135.13601,98.0091384" id="Line"></path>
                    <path d="M81.5867876,98.0091384 L82.5971503,98.0091384" id="Line"></path>
                    <path d="M85.123057,98.0091384 L88.1541451,98.0091384" id="Line"></path>
                    <path d="M90.6800518,98.0091384 L94.2163212,98.0091384" id="Line"></path>
                    <path d="M96.742228,98.0091384 L99.7733161,98.0091384" id="Line"></path>
                    <path d="M134.125648,46.5861619 L135.13601,46.5861619" id="Line"></path>
                    <path d="M122.001295,104.627937 L124.527202,102.082245" id="Line"></path>
                    <path d="M117.959845,109.210183 L119.98057,107.173629" id="Line"></path>
                    <path d="M113.918394,113.28329 L115.939119,111.246736" id="Line"></path>
                    <path d="M109.876943,117.356397 L111.897668,115.319843" id="Line"></path>
                    <path d="M105.835492,121.938642 L107.856218,119.902089" id="Line"></path>
                    <path d="M128.063472,106.155352 L128.063472,109.210183" id="Line"></path>
                    <path d="M128.063472,111.755875 L128.063472,114.810705" id="Line"></path>
                    <path d="M128.063472,117.356397 L128.063472,120.920366" id="Line"></path>
                    <path d="M128.063472,123.466057 L128.063472,126.520888" id="Line"></path>
                    <path d="M128.063472,129.06658 L128.063472,132.630548" id="Line"></path>
                    <path d="M128.063472,134.667102 L128.063472,138.23107" id="Line"></path>
                    <path d="M128.063472,140.776762 L128.063472,144.340731" id="Line"></path>
                    <path d="M105.835492,173.870757 L108.361399,171.325065" id="Line"></path>
                    <path d="M110.382124,169.288512 L112.40285,167.251958" id="Line"></path>
                    <path d="M114.423575,165.215405 L116.444301,163.178851" id="Line"></path>
                    <path d="M117.959845,161.142298 L120.485751,158.596606" id="Line"></path>
                    <path d="M122.001295,157.069191 L124.527202,154.523499" id="Line"></path>
                    <path d="M65.4209845,108.191906 L67.9468912,105.646214" id="Line"></path>
                    <path d="M61.3795337,112.265013 L63.9054404,109.719321" id="Line"></path>
                    <path d="M57.3380829,116.847258 L60.369171,113.792428" id="Line"></path>
                    <path d="M53.2966321,120.920366 L56.3277202,117.865535" id="Line"></path>
                    <path d="M76.0297927,76.116188 L76.0297927,80.189295" id="Line"></path>
                    <path d="M76.0297927,82.2258486 L76.0297927,85.2806789" id="Line"></path>
                    <path d="M76.0297927,88.3355091 L76.0297927,91.3903394" id="Line"></path>
                    <path d="M50.265544,98.0091384 L53.8018135,98.0091384" id="Line"></path>
                    <path d="M56.3277202,98.0091384 L59.3588083,98.0091384" id="Line"></path>
                    <path d="M61.884715,98.0091384 L65.4209845,98.0091384" id="Line"></path>
                    <path d="M67.4417098,98.0091384 L69.9676166,98.0091384" id="Line"></path>
                    <path d="M29.0479275,98.0091384 L30.5634715,98.0091384" id="Line"></path>
                    <path d="M32.5841969,98.0091384 L36.6256477,98.0091384" id="Line"></path>
                    <path d="M38.6463731,98.0091384 L42.1826425,98.0091384" id="Line"></path>
                    <path d="M44.2033679,98.0091384 L48.2448187,98.0091384" id="Line"></path>
                    <path d="M0.757772021,121.429504 L2.77849741,119.39295" id="Line"></path>
                    <path d="M4.29404145,117.865535 L6.81994819,115.319843" id="Line"></path>
                    <path d="M8.33549223,113.28329 L10.861399,110.737598" id="Line"></path>
                    <path d="M12.376943,109.210183 L14.9028497,106.664491" id="Line"></path>
                    <path d="M16.4183938,105.137076 L18.9443005,102.082245" id="Line"></path>
                    <path d="M0.757772021,172.85248 L2.77849741,170.815927" id="Line"></path>
                    <path d="M16.4183938,156.560052 L18.9443005,154.01436" id="Line"></path>
                    <path d="M4.29404145,169.288512 L6.81994819,166.74282" id="Line"></path>
                    <path d="M8.33549223,165.215405 L10.861399,162.669713" id="Line"></path>
                    <path d="M12.376943,160.633159 L14.9028497,158.087467" id="Line"></path>
                </g>
                <g id="Border" transform="translate(5.556995, 5.600522)" stroke="#000000">
                    <path d="M5.80958549,78.9164491 L46.7292746,78.9164491" id="Line" stroke-width="2" stroke-linecap="square"></path>
                    <path d="M58.8536269,78.9164491 L99.7733161,78.9164491" id="Line-Copy-10" stroke-width="2" stroke-linecap="square"></path>
                    <path d="M110.382124,79.4255875 L151.301813,79.4255875" id="Line-Copy-11" stroke-width="2" stroke-linecap="square"></path>
                    <path d="M110.382124,131.357702 L151.301813,131.357702" id="Line-Copy-12" stroke-width="2" stroke-linecap="square"></path>
                    <path d="M58.8536269,130.848564 L99.7733161,130.848564" id="Line-Copy-13" stroke-width="2" stroke-linecap="square"></path>
                    <path d="M5.80958549,130.848564 L46.7292746,130.848564" id="Line-Copy-14" stroke-width="2" stroke-linecap="square"></path>
                    <use id="Rectangle" mask="url(#mask-2)" stroke-width="4" xlink:href="#path-1"></use>
                    <use id="Rectangle-2" mask="url(#mask-4)" stroke-width="4" xlink:href="#path-3"></use>
                    <path d="M52.5388601,33.8577023 L52.5388601,74.0796345" id="Line" stroke-width="2" stroke-linecap="square"></path>
                    <path d="M105.07772,33.8577023 L105.07772,74.0796345" id="Line-Copy-2" stroke-width="2" stroke-linecap="square"></path>
                    <path d="M105.07772,85.2806789 L105.07772,125.502611" id="Line-Copy-3" stroke-width="2" stroke-linecap="square"></path>
                    <path d="M52.5388601,85.2806789 L52.5388601,125.502611" id="Line-Copy-4" stroke-width="2" stroke-linecap="square"></path>
                    <path d="M52.5388601,137.212794 L52.5388601,177.434726" id="Line-Copy-5" stroke-width="2" stroke-linecap="square"></path>
                    <path d="M105.07772,137.212794 L105.07772,177.434726" id="Line-Copy-6" stroke-width="2" stroke-linecap="square"></path>
                    <path d="M3.28367876,24.6932115 L22.9857513,4.32767624" id="Line" stroke-width="2" stroke-linecap="square"></path>
                    <path d="M54.8121762,25.2023499 L77.0401554,2.29112272" id="Line" stroke-width="2" stroke-linecap="square"></path>
                    <path d="M107.856218,24.6932115 L128.063472,3.30939948" id="Line" stroke-width="2" stroke-linecap="square"></path>
                    <path d="M159.637306,25.4569191 L182.117876,1.27284595" id="Line-Copy" stroke-width="2" stroke-linecap="square"></path>
                    <path d="M161.910622,75.6070496 L180.09715,56.7689295" id="Line-Copy-7" stroke-width="2" stroke-linecap="square"></path>
                    <path d="M161.40544,127.030026 L179.591969,108.191906" id="Line-Copy-8" stroke-width="2" stroke-linecap="square"></path>
                    <path d="M161.910622,180.998695 L180.09715,162.160574" id="Line-Copy-9" stroke-width="2" stroke-linecap="square"></path>
                </g>
                <g id="Circles" fill="#65B553">
                    <ellipse id="Oval" cx="6.06217617" cy="33.6031332" rx="5.55699482" ry="5.60052219"></ellipse>
                    <ellipse id="Oval-Copy-5" cx="58.0958549" cy="33.6031332" rx="5.55699482" ry="5.60052219"></ellipse>
                    <ellipse id="Oval-Copy-6" cx="110.634715" cy="33.6031332" rx="5.55699482" ry="5.60052219"></ellipse>
                    <ellipse id="Oval-Copy-7" cx="163.173575" cy="33.6031332" rx="5.55699482" ry="5.60052219"></ellipse>
                    <ellipse id="Oval-Copy-8" cx="189.443005" cy="57.5326371" rx="5.55699482" ry="5.60052219"></ellipse>
                    <ellipse id="Oval-Copy-9" cx="163.173575" cy="85.535248" rx="5.55699482" ry="5.60052219"></ellipse>
                    <ellipse id="Oval-Copy-10" cx="136.904145" cy="57.5326371" rx="5.55699482" ry="5.60052219"></ellipse>
                    <ellipse id="Oval-Copy-11" cx="110.634715" cy="85.535248" rx="5.55699482" ry="5.60052219"></ellipse>
                    <ellipse id="Oval-Copy-12" cx="84.365285" cy="57.5326371" rx="5.55699482" ry="5.60052219"></ellipse>
                    <ellipse id="Oval-Copy-13" cx="58.0958549" cy="85.535248" rx="5.55699482" ry="5.60052219"></ellipse>
                    <ellipse id="Oval-Copy-14" cx="31.8264249" cy="57.5326371" rx="5.55699482" ry="5.60052219"></ellipse>
                    <ellipse id="Oval-Copy-15" cx="5.55699482" cy="85.535248" rx="5.55699482" ry="5.60052219"></ellipse>
                    <ellipse id="Oval-Copy-16" cx="6.06217617" cy="137.467363" rx="5.55699482" ry="5.60052219"></ellipse>
                    <ellipse id="Oval-Copy-19" cx="31.8264249" cy="109.464752" rx="5.55699482" ry="5.60052219"></ellipse>
                    <ellipse id="Oval-Copy-20" cx="84.365285" cy="109.464752" rx="5.55699482" ry="5.60052219"></ellipse>
                    <ellipse id="Oval-Copy-21" cx="58.0958549" cy="137.467363" rx="5.55699482" ry="5.60052219"></ellipse>
                    <ellipse id="Oval-Copy-22" cx="110.634715" cy="137.467363" rx="5.55699482" ry="5.60052219"></ellipse>
                    <ellipse id="Oval-Copy-29" cx="136.904145" cy="109.464752" rx="5.55699482" ry="5.60052219"></ellipse>
                    <ellipse id="Oval-Copy-30" cx="136.904145" cy="161.396867" rx="5.55699482" ry="5.60052219"></ellipse>
                    <ellipse id="Oval-Copy-31" cx="84.365285" cy="161.396867" rx="5.55699482" ry="5.60052219"></ellipse>
                    <ellipse id="Oval-Copy-23" cx="163.173575" cy="137.467363" rx="5.55699482" ry="5.60052219"></ellipse>
                    <ellipse id="Oval-Copy-24" cx="189.443005" cy="109.464752" rx="5.55699482" ry="5.60052219"></ellipse>
                    <ellipse id="Oval-Copy-25" cx="189.443005" cy="161.396867" rx="5.55699482" ry="5.60052219"></ellipse>
                    <ellipse id="Oval-Copy-26" cx="163.173575" cy="188.890339" rx="5.55699482" ry="5.60052219"></ellipse>
                    <ellipse id="Oval-Copy-27" cx="110.634715" cy="189.399478" rx="5.55699482" ry="5.60052219"></ellipse>
                    <ellipse id="Oval-Copy-28" cx="58.0958549" cy="189.399478" rx="5.55699482" ry="5.60052219"></ellipse>
                    <ellipse id="Oval-Copy-17" cx="5.55699482" cy="188.890339" rx="5.55699482" ry="5.60052219"></ellipse>
                    <ellipse id="Oval-Copy-18" cx="31.8264249" cy="161.396867" rx="5.55699482" ry="5.60052219"></ellipse>
                    <ellipse id="Oval-Copy" cx="31.8264249" cy="5.60052219" rx="5.55699482" ry="5.60052219"></ellipse>
                    <ellipse id="Oval-Copy-2" cx="84.365285" cy="5.60052219" rx="5.55699482" ry="5.60052219"></ellipse>
                    <ellipse id="Oval-Copy-3" cx="136.904145" cy="5.60052219" rx="5.55699482" ry="5.60052219"></ellipse>
                    <ellipse id="Oval-Copy-4" cx="189.443005" cy="5.60052219" rx="5.55699482" ry="5.60052219"></ellipse>
                </g>
            </g>
        </g>
    </g>
</svg>